<mxfile host="drawio-plugin" modified="2023-08-15T10:08:17.120Z" agent="5.0 (Windows NT 10.0; Win64; x64) AppleWebKit/537.36 (KHTML, like Gecko) Chrome/111.0.0.0 Safari/537.36" etag="ZHEby0UeAIO8RU8FbSgp" version="20.5.3" type="embed"><diagram id="35mOByB-Zaqc2BYF5qgk" name="Page-1"><mxGraphModel dx="1388" dy="792" grid="0" gridSize="10" guides="0" tooltips="1" connect="1" arrows="1" fold="1" page="0" pageScale="1" pageWidth="850" pageHeight="1100" background="#1A1A1A" math="0" shadow="0"><root><mxCell id="0"/><mxCell id="1" parent="0"/><mxCell id="U_q5xMSVDk5hVoAxFj4v-1" value="User" style="swimlane;childLayout=stackLayout;horizontal=1;startSize=30;horizontalStack=0;rounded=1;fontSize=14;fontStyle=0;strokeWidth=2;resizeParent=0;resizeLast=1;shadow=0;dashed=0;align=center;" parent="1" vertex="1"><mxGeometry x="120" y="100" width="160" height="120" as="geometry"/></mxCell><mxCell id="U_q5xMSVDk5hVoAxFj4v-2" value="firstName (string)&#10;lastName (string)&#10;email (string)&#10;password (string)&#10;phone (number)" style="align=left;strokeColor=none;fillColor=none;spacingLeft=4;fontSize=12;verticalAlign=top;resizable=0;rotatable=0;part=1;" parent="U_q5xMSVDk5hVoAxFj4v-1" vertex="1"><mxGeometry y="30" width="160" height="90" as="geometry"/></mxCell><mxCell id="U_q5xMSVDk5hVoAxFj4v-3" value="Role" style="swimlane;childLayout=stackLayout;horizontal=1;startSize=30;horizontalStack=0;rounded=1;fontSize=14;fontStyle=0;strokeWidth=2;resizeParent=0;resizeLast=1;shadow=0;dashed=0;align=center;" parent="1" vertex="1"><mxGeometry x="510" y="130" width="160" height="120" as="geometry"/></mxCell><mxCell id="U_q5xMSVDk5hVoAxFj4v-4" value="name (string)&#10;permissions (string)" style="align=left;strokeColor=none;fillColor=none;spacingLeft=4;fontSize=12;verticalAlign=top;resizable=0;rotatable=0;part=1;" parent="U_q5xMSVDk5hVoAxFj4v-3" vertex="1"><mxGeometry y="30" width="160" height="90" as="geometry"/></mxCell><mxCell id="U_q5xMSVDk5hVoAxFj4v-5" value="" style="edgeStyle=entityRelationEdgeStyle;fontSize=12;html=1;endArrow=ERmandOne;startArrow=ERmandOne;rounded=0;entryX=0.002;entryY=0.166;entryDx=0;entryDy=0;entryPerimeter=0;exitX=1;exitY=0.5;exitDx=0;exitDy=0;" parent="1" source="U_q5xMSVDk5hVoAxFj4v-2" target="q2uNf_PgWBjbl3S7Xdy3-2" edge="1"><mxGeometry width="100" height="100" relative="1" as="geometry"><mxPoint x="320" y="380" as="sourcePoint"/><mxPoint x="420" y="280" as="targetPoint"/></mxGeometry></mxCell><mxCell id="q2uNf_PgWBjbl3S7Xdy3-1" value="UserRole" style="swimlane;childLayout=stackLayout;horizontal=1;startSize=30;horizontalStack=0;rounded=1;fontSize=14;fontStyle=0;strokeWidth=2;resizeParent=0;resizeLast=1;shadow=0;dashed=0;align=center;" parent="1" vertex="1"><mxGeometry x="330" y="290" width="160" height="120" as="geometry"/></mxCell><mxCell id="q2uNf_PgWBjbl3S7Xdy3-2" value="time (dateTime)" style="align=left;strokeColor=none;fillColor=none;spacingLeft=4;fontSize=12;verticalAlign=top;resizable=0;rotatable=0;part=1;" parent="q2uNf_PgWBjbl3S7Xdy3-1" vertex="1"><mxGeometry y="30" width="160" height="90" as="geometry"/></mxCell><mxCell id="MCvFwka_SM_PmBLeikFw-1" value="" style="edgeStyle=entityRelationEdgeStyle;fontSize=12;html=1;endArrow=ERoneToMany;rounded=0;entryX=1;entryY=0.25;entryDx=0;entryDy=0;" parent="1" target="q2uNf_PgWBjbl3S7Xdy3-2" edge="1"><mxGeometry width="100" height="100" relative="1" as="geometry"><mxPoint x="670" y="220" as="sourcePoint"/><mxPoint x="470" y="300" as="targetPoint"/></mxGeometry></mxCell></root></mxGraphModel></diagram></mxfile>